<svg width="28" height="25" viewBox="0 0 28 25" fill="none" xmlns="http://www.w3.org/2000/svg">
<path d="M12.2758 2L1.27577 21C1.10053 21.3035 1.00812 21.6478 1.00781 21.9982C1.0075 22.3487 1.0993 22.6931 1.274 22.997C1.4487 23.3008 1.70018 23.5534 2.00324 23.7294C2.3063 23.9055 2.65029 23.9988 3.00077 24H25.0008C25.3512 23.9988 25.6952 23.9055 25.9983 23.7294C26.3014 23.5534 26.5528 23.3008 26.7275 22.997C26.9022 22.6931 26.994 22.3487 26.9937 21.9982C26.9934 21.6478 26.901 21.3035 26.7258 21L15.7258 2C15.5518 1.69609 15.3007 1.44352 14.9978 1.26786C14.6949 1.0922 14.3509 0.999687 14.0008 0.999687C13.6506 0.999687 13.3067 1.0922 13.0037 1.26786C12.7008 1.44352 12.4497 1.69609 12.2758 2V2Z" stroke="#2A3135" stroke-width="2" stroke-linecap="round" stroke-linejoin="round"/>
</svg>
