<svg width="25" height="25" viewBox="0 0 25 25" fill="none" xmlns="http://www.w3.org/2000/svg">
<path d="M14.8438 7.8125V19.8926C14.8426 20.0224 14.8742 20.1504 14.9356 20.2648C14.9971 20.3792 15.0864 20.4762 15.1953 20.5469L16.2696 21.2598C16.3736 21.3292 16.4929 21.3727 16.6172 21.3865C16.7416 21.4003 16.8675 21.384 16.9842 21.339C17.101 21.2941 17.2052 21.2217 17.2882 21.128C17.3712 21.0343 17.4304 20.9221 17.461 20.8008L18.75 15.625" stroke="#FA4661" stroke-width="1.75" stroke-linecap="round" stroke-linejoin="round"/>
<path d="M18.75 15.625C19.786 15.625 20.7796 15.2134 21.5121 14.4809C22.2447 13.7483 22.6562 12.7547 22.6562 11.7187C22.6562 10.6827 22.2447 9.68917 21.5121 8.9566C20.7796 8.22404 19.786 7.81249 18.75 7.81249H14.8438C14.8438 7.81249 9.52148 7.81249 4.4043 3.52538C4.29048 3.43119 4.15229 3.37121 4.00576 3.35239C3.85923 3.33357 3.71036 3.35668 3.57644 3.41904C3.44251 3.48141 3.32901 3.58046 3.24911 3.70472C3.1692 3.82898 3.12617 3.97335 3.125 4.12108V19.3164C3.12617 19.4641 3.1692 19.6085 3.24911 19.7328C3.32901 19.857 3.44251 19.9561 3.57644 20.0184C3.71036 20.0808 3.85923 20.1039 4.00576 20.0851C4.15229 20.0663 4.29048 20.0063 4.4043 19.9121C9.52148 15.625 14.8438 15.625 14.8438 15.625H18.75Z" stroke="#FA4661" stroke-width="1.75" stroke-linecap="round" stroke-linejoin="round"/>
</svg>
