<svg width="25" height="25" viewBox="0 0 25 25" fill="none" xmlns="http://www.w3.org/2000/svg">
<path d="M12.5 16.4062C14.6574 16.4062 16.4062 14.6574 16.4062 12.5C16.4062 10.3426 14.6574 8.59375 12.5 8.59375C10.3426 8.59375 8.59375 10.3426 8.59375 12.5C8.59375 14.6574 10.3426 16.4062 12.5 16.4062Z" stroke="#FA4661" stroke-width="1.75" stroke-linecap="round" stroke-linejoin="round"/>
<path d="M17.6856 20.3125C15.9454 21.4678 13.8693 22.009 11.7866 21.85C9.70389 21.6911 7.73392 20.8411 6.18926 19.4351C4.64461 18.0291 3.61375 16.1474 3.26025 14.0888C2.90675 12.0302 3.25086 9.91247 4.23798 8.07169C5.2251 6.2309 6.79869 4.77249 8.70906 3.92786C10.6194 3.08324 12.7572 2.90078 14.783 3.40943C16.8089 3.91809 18.6069 5.08873 19.8917 6.7356C21.1765 8.38247 21.8745 10.4112 21.875 12.5C21.875 14.6582 21.0938 16.4062 19.1406 16.4062C17.1875 16.4062 16.4063 14.6582 16.4063 12.5V8.59375" stroke="#FA4661" stroke-width="1.75" stroke-linecap="round" stroke-linejoin="round"/>
</svg>
