<svg width="25" height="25" viewBox="0 0 25 25" fill="none" xmlns="http://www.w3.org/2000/svg">
<path d="M12.5 15.625C14.2259 15.625 15.625 14.2259 15.625 12.5C15.625 10.7741 14.2259 9.375 12.5 9.375C10.7741 9.375 9.375 10.7741 9.375 12.5C9.375 14.2259 10.7741 15.625 12.5 15.625Z" stroke="#FA4661" stroke-width="1.75" stroke-linecap="round" stroke-linejoin="round"/>
<path d="M7.52948 17.4707C6.88791 16.8298 6.37712 16.0703 6.02558 15.2344C5.65813 14.3696 5.46875 13.4396 5.46875 12.5C5.46875 11.5604 5.65813 10.6304 6.02558 9.76563C6.37712 8.92971 6.88791 8.17017 7.52948 7.5293" stroke="#FA4661" stroke-width="1.75" stroke-linecap="round" stroke-linejoin="round"/>
<path d="M17.4707 7.5293C18.1123 8.17017 18.6231 8.92971 18.9746 9.76563C19.3421 10.6304 19.5314 11.5604 19.5314 12.5C19.5314 13.4396 19.3421 14.3696 18.9746 15.2344C18.6231 16.0703 18.1123 16.8298 17.4707 17.4707" stroke="#FA4661" stroke-width="1.75" stroke-linecap="round" stroke-linejoin="round"/>
<path d="M4.7657 20.2344C3.76927 19.2361 2.97363 18.0559 2.42195 16.7578C1.8547 15.41 1.5625 13.9624 1.5625 12.5C1.5625 11.0376 1.8547 9.59004 2.42195 8.24219C2.97363 6.94408 3.76927 5.76389 4.7657 4.76562" stroke="#FA4661" stroke-width="1.75" stroke-linecap="round" stroke-linejoin="round"/>
<path d="M20.2344 4.76562C21.2308 5.76389 22.0264 6.94408 22.5781 8.24219C23.1454 9.59004 23.4376 11.0376 23.4376 12.5C23.4376 13.9624 23.1454 15.41 22.5781 16.7578C22.0264 18.0559 21.2308 19.2361 20.2344 20.2344" stroke="#FA4661" stroke-width="1.75" stroke-linecap="round" stroke-linejoin="round"/>
</svg>
