<svg width="25" height="26" viewBox="0 0 25 26" fill="none" xmlns="http://www.w3.org/2000/svg">
<path d="M20.3125 4.40625H4.6875C4.25603 4.40625 3.90625 4.75603 3.90625 5.1875V20.8125C3.90625 21.244 4.25603 21.5938 4.6875 21.5938H20.3125C20.744 21.5938 21.0938 21.244 21.0938 20.8125V5.1875C21.0938 4.75603 20.744 4.40625 20.3125 4.40625Z" stroke="#FA4661" stroke-width="1.75" stroke-linecap="round" stroke-linejoin="round"/>
<path d="M17.1875 2.84375V5.96875" stroke="#FA4661" stroke-width="1.75" stroke-linecap="round" stroke-linejoin="round"/>
<path d="M7.8125 2.84375V5.96875" stroke="#FA4661" stroke-width="1.75" stroke-linecap="round" stroke-linejoin="round"/>
<path d="M3.90625 9.09375H21.0938" stroke="#FA4661" stroke-width="1.75" stroke-linecap="round" stroke-linejoin="round"/>
<path d="M8.98438 13H11.7188L10.1562 14.9531C10.4134 14.9527 10.6667 15.0157 10.8936 15.1366C11.1206 15.2575 11.3142 15.4326 11.4572 15.6463C11.6003 15.8599 11.6884 16.1056 11.7138 16.3615C11.7392 16.6174 11.701 16.8756 11.6026 17.1132C11.5043 17.3508 11.3488 17.5605 11.15 17.7236C10.9512 17.8867 10.7152 17.9982 10.463 18.0482C10.2108 18.0983 9.9501 18.0853 9.70409 18.0105C9.45808 17.9356 9.23434 17.8012 9.05273 17.6191" stroke="#FA4661" stroke-width="1.75" stroke-linecap="round" stroke-linejoin="round"/>
<path d="M14.0625 14.1719L15.625 13V18.0781" stroke="#FA4661" stroke-width="1.75" stroke-linecap="round" stroke-linejoin="round"/>
</svg>
