<svg width="25" height="25" viewBox="0 0 25 25" fill="none" xmlns="http://www.w3.org/2000/svg">
<path d="M4.43386 17.2852C3.27066 15.3227 2.86379 13.0031 3.28963 10.7619C3.71546 8.52066 4.94472 6.51195 6.74663 5.11283C8.54854 3.71372 10.7992 3.02043 13.076 3.16312C15.3529 3.30581 17.4993 4.27467 19.1125 5.8878C20.7256 7.50093 21.6945 9.6474 21.8372 11.9243C21.9798 14.2011 21.2866 16.4517 19.8874 18.2536C18.4883 20.0556 16.4796 21.2848 14.2384 21.7107C11.9972 22.1365 9.6776 21.7296 7.71511 20.5664L4.47292 21.4844C4.34009 21.5232 4.19925 21.5256 4.06516 21.4913C3.93108 21.457 3.80869 21.3873 3.71083 21.2894C3.61297 21.1916 3.54323 21.0692 3.50893 20.9351C3.47464 20.801 3.47704 20.6602 3.51589 20.5274L4.43386 17.2852Z" stroke="#FA4661" stroke-width="1.75" stroke-linecap="round" stroke-linejoin="round"/>
<path d="M12.5 13.6719C13.1472 13.6719 13.6719 13.1472 13.6719 12.5C13.6719 11.8528 13.1472 11.3281 12.5 11.3281C11.8528 11.3281 11.3281 11.8528 11.3281 12.5C11.3281 13.1472 11.8528 13.6719 12.5 13.6719Z" fill="#FA4661"/>
<path d="M7.8125 13.6719C8.45971 13.6719 8.98438 13.1472 8.98438 12.5C8.98438 11.8528 8.45971 11.3281 7.8125 11.3281C7.16529 11.3281 6.64062 11.8528 6.64062 12.5C6.64062 13.1472 7.16529 13.6719 7.8125 13.6719Z" fill="#FA4661"/>
<path d="M17.1875 13.6719C17.8347 13.6719 18.3594 13.1472 18.3594 12.5C18.3594 11.8528 17.8347 11.3281 17.1875 11.3281C16.5403 11.3281 16.0156 11.8528 16.0156 12.5C16.0156 13.1472 16.5403 13.6719 17.1875 13.6719Z" fill="#FA4661"/>
</svg>
