<svg width="25" height="25" viewBox="0 0 25 25" fill="none" xmlns="http://www.w3.org/2000/svg">
<path d="M10.9375 17.9688H3.125C2.7106 17.9688 2.31317 17.8041 2.02015 17.5111C1.72712 17.2181 1.5625 16.8207 1.5625 16.4062V9.375C1.5625 8.9606 1.72712 8.56317 2.02015 8.27015C2.31317 7.97712 2.7106 7.8125 3.125 7.8125H10.9375" stroke="#FA4661" stroke-width="1.75" stroke-linecap="round" stroke-linejoin="round"/>
<path d="M10.9375 21.0938H6.25" stroke="#FA4661" stroke-width="1.75" stroke-linecap="round" stroke-linejoin="round"/>
<path d="M20.3125 7.03125H17.1875" stroke="#FA4661" stroke-width="1.75" stroke-linecap="round" stroke-linejoin="round"/>
<path d="M20.3125 10.1562H17.1875" stroke="#FA4661" stroke-width="1.75" stroke-linecap="round" stroke-linejoin="round"/>
<path d="M22.6562 3.90625H14.8438C14.4123 3.90625 14.0625 4.25603 14.0625 4.6875V20.3125C14.0625 20.744 14.4123 21.0938 14.8438 21.0938H22.6562C23.0877 21.0938 23.4375 20.744 23.4375 20.3125V4.6875C23.4375 4.25603 23.0877 3.90625 22.6562 3.90625Z" stroke="#FA4661" stroke-width="1.75" stroke-linecap="round" stroke-linejoin="round"/>
<path d="M8.59375 17.9688V21.0938" stroke="#FA4661" stroke-width="1.75" stroke-linecap="round" stroke-linejoin="round"/>
<path d="M18.75 18.75C19.3972 18.75 19.9219 18.2253 19.9219 17.5781C19.9219 16.9309 19.3972 16.4062 18.75 16.4062C18.1028 16.4062 17.5781 16.9309 17.5781 17.5781C17.5781 18.2253 18.1028 18.75 18.75 18.75Z" fill="#FA4661"/>
</svg>
