<svg width="25" height="26" viewBox="0 0 25 26" fill="none" xmlns="http://www.w3.org/2000/svg">
<path d="M17.1875 13H21.875C22.0822 13 22.2809 13.0823 22.4274 13.2288C22.5739 13.3753 22.6562 13.574 22.6562 13.7812V20.0312C22.6562 20.2385 22.5739 20.4372 22.4274 20.5837C22.2809 20.7302 22.0822 20.8125 21.875 20.8125H3.125C2.9178 20.8125 2.71909 20.7302 2.57257 20.5837C2.42606 20.4372 2.34375 20.2385 2.34375 20.0312V13.7812C2.34375 13.574 2.42606 13.3753 2.57257 13.2288C2.71909 13.0823 2.9178 13 3.125 13H7.8125" stroke="#FA4661" stroke-width="1.75" stroke-linecap="round" stroke-linejoin="round"/>
<path d="M12.5 2.84375V13" stroke="#FA4661" stroke-width="1.75" stroke-linecap="round" stroke-linejoin="round"/>
<path d="M7.8125 8.3125L12.5 13L17.1875 8.3125" stroke="#FA4661" stroke-width="1.75" stroke-linecap="round" stroke-linejoin="round"/>
<path d="M18.3594 18.0781C19.0066 18.0781 19.5312 17.5535 19.5312 16.9062C19.5312 16.259 19.0066 15.7344 18.3594 15.7344C17.7122 15.7344 17.1875 16.259 17.1875 16.9062C17.1875 17.5535 17.7122 18.0781 18.3594 18.0781Z" fill="#FA4661"/>
</svg>
