<svg width="25" height="25" viewBox="0 0 25 25" fill="none" xmlns="http://www.w3.org/2000/svg">
<path d="M9.10156 11.9922C8.7629 11.1614 8.59038 10.2722 8.59375 9.375C8.59375 7.98435 9.00613 6.62493 9.77873 5.46865C10.5513 4.31237 11.6495 3.41115 12.9343 2.87898C14.2191 2.3468 15.6328 2.20755 16.9967 2.47886C18.3607 2.75016 19.6135 3.41982 20.5968 4.40316C21.5802 5.3865 22.2498 6.63935 22.5211 8.00328C22.7924 9.3672 22.6532 10.781 22.121 12.0657C21.5888 13.3505 20.6876 14.4487 19.5314 15.2213C18.3751 15.9939 17.0156 16.4063 15.625 16.4063C14.7278 16.4096 13.8386 16.2371 13.0078 15.8984V15.8984L11.7188 17.1875H9.375V19.5313H7.03125V21.875H3.125V17.9688L9.10156 11.9922Z" stroke="#FA4661" stroke-width="1.75" stroke-linecap="round" stroke-linejoin="round"/>
<path d="M17.5781 8.59375C18.2253 8.59375 18.75 8.06908 18.75 7.42188C18.75 6.77467 18.2253 6.25 17.5781 6.25C16.9309 6.25 16.4062 6.77467 16.4062 7.42188C16.4062 8.06908 16.9309 8.59375 17.5781 8.59375Z" fill="#FA4661"/>
</svg>
