<svg width="25" height="25" viewBox="0 0 25 25" fill="none" xmlns="http://www.w3.org/2000/svg">
<path d="M5.32227 19.6777C4.42383 18.7793 5.01953 16.8945 4.56055 15.791C4.10156 14.6875 2.34375 13.7207 2.34375 12.5C2.34375 11.2793 4.08203 10.3516 4.56055 9.20898C5.03906 8.06641 4.42383 6.2207 5.32227 5.32227C6.2207 4.42383 8.10547 5.01953 9.20898 4.56055C10.3125 4.10156 11.2793 2.34375 12.5 2.34375C13.7207 2.34375 14.6484 4.08203 15.791 4.56055C16.9336 5.03906 18.7793 4.42383 19.6777 5.32227C20.5762 6.2207 19.9805 8.10547 20.4395 9.20898C20.8984 10.3125 22.6562 11.2793 22.6562 12.5C22.6562 13.7207 20.918 14.6484 20.4395 15.791C19.9609 16.9336 20.5762 18.7793 19.6777 19.6777C18.7793 20.5762 16.8945 19.9805 15.791 20.4395C14.6875 20.8984 13.7207 22.6562 12.5 22.6562C11.2793 22.6562 10.3516 20.918 9.20898 20.4395C8.06641 19.9609 6.2207 20.5762 5.32227 19.6777Z" stroke="#FA4661" stroke-width="1.75" stroke-linecap="round" stroke-linejoin="round"/>
<path d="M12.5 7.8125V13.2812" stroke="#FA4661" stroke-width="1.75" stroke-linecap="round" stroke-linejoin="round"/>
<path d="M12.5 17.9688C13.1472 17.9688 13.6719 17.4441 13.6719 16.7969C13.6719 16.1497 13.1472 15.625 12.5 15.625C11.8528 15.625 11.3281 16.1497 11.3281 16.7969C11.3281 17.4441 11.8528 17.9688 12.5 17.9688Z" fill="#FA4661"/>
</svg>
