<svg width="25" height="25" viewBox="0 0 25 25" fill="none" xmlns="http://www.w3.org/2000/svg">
<path d="M9.18945 15.8105L15.8105 9.17969" stroke="#FA4661" stroke-width="1.75" stroke-linecap="round" stroke-linejoin="round"/>
<path d="M14.1604 17.4707L11.3967 20.2344C10.9613 20.6698 10.4445 21.0151 9.8756 21.2508C9.30674 21.4864 8.69704 21.6077 8.0813 21.6077C6.83778 21.6077 5.64518 21.1137 4.76587 20.2344C3.88657 19.3551 3.39258 18.1625 3.39258 16.9189C3.39258 15.6754 3.88657 14.4828 4.76587 13.6035L7.52955 10.8398" stroke="#FA4661" stroke-width="1.75" stroke-linecap="round" stroke-linejoin="round"/>
<path d="M17.4707 14.1602L20.2344 11.3965C21.1137 10.5172 21.6077 9.32458 21.6077 8.08105C21.6077 6.83752 21.1137 5.64493 20.2344 4.76562C19.3551 3.88632 18.1625 3.39233 16.9189 3.39233C15.6754 3.39233 14.4828 3.88632 13.6035 4.76562L10.8398 7.52929" stroke="#FA4661" stroke-width="1.75" stroke-linecap="round" stroke-linejoin="round"/>
</svg>
