<svg width="25" height="25" viewBox="0 0 25 25" fill="none" xmlns="http://www.w3.org/2000/svg">
<path d="M20.3125 8.59375H4.6875C4.25603 8.59375 3.90625 8.94353 3.90625 9.375V20.3125C3.90625 20.744 4.25603 21.0938 4.6875 21.0938H20.3125C20.744 21.0938 21.0938 20.744 21.0938 20.3125V9.375C21.0938 8.94353 20.744 8.59375 20.3125 8.59375Z" stroke="#FA4661" stroke-width="1.75" stroke-linecap="round" stroke-linejoin="round"/>
<path d="M8.98438 8.59375V5.07812C8.98438 4.14572 9.35477 3.25151 10.0141 2.5922C10.6734 1.9329 11.5676 1.5625 12.5 1.5625C13.4324 1.5625 14.3266 1.9329 14.9859 2.5922C15.6452 3.25151 16.0156 4.14572 16.0156 5.07812V8.59375" stroke="#FA4661" stroke-width="1.75" stroke-linecap="round" stroke-linejoin="round"/>
</svg>
