<svg width="25" height="25" viewBox="0 0 25 25" fill="none" xmlns="http://www.w3.org/2000/svg">
<path d="M4.43386 17.2852C3.27066 15.3227 2.86379 13.0031 3.28963 10.7619C3.71546 8.52065 4.94472 6.51194 6.74663 5.11283C8.54854 3.71371 10.7992 3.02043 13.076 3.16312C15.3529 3.30581 17.4993 4.27466 19.1125 5.88779C20.7256 7.50092 21.6945 9.6474 21.8372 11.9242C21.9798 14.2011 21.2866 16.4517 19.8874 18.2536C18.4883 20.0555 16.4796 21.2848 14.2384 21.7106C11.9972 22.1365 9.6776 21.7296 7.71511 20.5664L4.47292 21.4844C4.34009 21.5232 4.19925 21.5256 4.06516 21.4913C3.93108 21.457 3.80869 21.3873 3.71083 21.2894C3.61297 21.1916 3.54323 21.0692 3.50893 20.9351C3.47464 20.801 3.47704 20.6602 3.51589 20.5273L4.43386 17.2852Z" stroke="#FA4661" stroke-width="1.75" stroke-linecap="round" stroke-linejoin="round"/>
<path d="M7.8125 14.0625L10.9375 10.9375L14.0625 14.0625L17.1875 10.9375" stroke="#FA4661" stroke-width="1.75" stroke-linecap="round" stroke-linejoin="round"/>
</svg>
