<svg width="25" height="25" viewBox="0 0 25 25" fill="none" xmlns="http://www.w3.org/2000/svg">
<path d="M19.5312 5.46875H4.6875C4.25603 5.46875 3.90625 5.81853 3.90625 6.25V12.5C3.90625 12.9315 4.25603 13.2812 4.6875 13.2812H19.5312C19.9627 13.2812 20.3125 12.9315 20.3125 12.5V6.25C20.3125 5.81853 19.9627 5.46875 19.5312 5.46875Z" stroke="#FA4661" stroke-width="1.75" stroke-linecap="round" stroke-linejoin="round"/>
<path d="M20.3125 9.375H22.6562C22.8635 9.375 23.0622 9.45731 23.2087 9.60382C23.3552 9.75033 23.4375 9.94905 23.4375 10.1562V15.0391C23.4361 15.2085 23.3803 15.3731 23.2783 15.5085C23.1764 15.6438 23.0336 15.7429 22.8711 15.791L13.0664 18.584C12.9039 18.6321 12.7611 18.7311 12.6592 18.8665C12.5572 19.0019 12.5014 19.1665 12.5 19.3359V22.6562" stroke="#FA4661" stroke-width="1.75" stroke-linecap="round" stroke-linejoin="round"/>
<path d="M3.90625 9.375H1.5625" stroke="#FA4661" stroke-width="1.75" stroke-linecap="round" stroke-linejoin="round"/>
</svg>
