<svg width="25" height="25" viewBox="0 0 25 25" fill="none" xmlns="http://www.w3.org/2000/svg">
<path d="M12.5 21.875C17.6777 21.875 21.875 17.6777 21.875 12.5C21.875 7.32233 17.6777 3.125 12.5 3.125C7.32233 3.125 3.125 7.32233 3.125 12.5C3.125 17.6777 7.32233 21.875 12.5 21.875Z" stroke="#FA4661" stroke-width="1.75" stroke-linecap="round" stroke-linejoin="round"/>
<path d="M13.8086 12.9492C14.3422 12.6584 14.7637 12.1981 15.0065 11.6411C15.2494 11.084 15.2998 10.462 15.1497 9.8731C14.9996 9.28424 14.6577 8.76214 14.1779 8.38925C13.6981 8.01636 13.1077 7.81393 12.5 7.81393C11.8923 7.81393 11.302 8.01636 10.8221 8.38925C10.3423 8.76214 10.0004 9.28424 9.8503 9.8731C9.70025 10.462 9.75062 11.084 9.99348 11.6411C10.2363 12.1981 10.6578 12.6584 11.1914 12.9492L9.84375 16.0938C9.79197 16.2124 9.77048 16.3421 9.78122 16.4711C9.79196 16.6001 9.83459 16.7244 9.90528 16.8329C9.97596 16.9413 10.0725 17.0305 10.1862 17.0924C10.2999 17.1543 10.4272 17.187 10.5566 17.1875H14.4434C14.5728 17.187 14.7001 17.1543 14.8138 17.0924C14.9275 17.0305 15.024 16.9413 15.0947 16.8329C15.1654 16.7244 15.208 16.6001 15.2188 16.4711C15.2295 16.3421 15.208 16.2124 15.1563 16.0938L13.8086 12.9492Z" stroke="#FA4661" stroke-width="1.75" stroke-linecap="round" stroke-linejoin="round"/>
</svg>
