<svg width="25" height="25" viewBox="0 0 25 25" fill="none" xmlns="http://www.w3.org/2000/svg">
<path d="M10.1562 4.6875H5.46875C5.03728 4.6875 4.6875 5.03728 4.6875 5.46875V10.1562C4.6875 10.5877 5.03728 10.9375 5.46875 10.9375H10.1562C10.5877 10.9375 10.9375 10.5877 10.9375 10.1562V5.46875C10.9375 5.03728 10.5877 4.6875 10.1562 4.6875Z" stroke="#FA4661" stroke-width="1.75" stroke-linecap="round" stroke-linejoin="round"/>
<path d="M10.1562 14.0625H5.46875C5.03728 14.0625 4.6875 14.4123 4.6875 14.8438V19.5312C4.6875 19.9627 5.03728 20.3125 5.46875 20.3125H10.1562C10.5877 20.3125 10.9375 19.9627 10.9375 19.5312V14.8438C10.9375 14.4123 10.5877 14.0625 10.1562 14.0625Z" stroke="#FA4661" stroke-width="1.75" stroke-linecap="round" stroke-linejoin="round"/>
<path d="M19.5312 4.6875H14.8438C14.4123 4.6875 14.0625 5.03728 14.0625 5.46875V10.1562C14.0625 10.5877 14.4123 10.9375 14.8438 10.9375H19.5312C19.9627 10.9375 20.3125 10.5877 20.3125 10.1562V5.46875C20.3125 5.03728 19.9627 4.6875 19.5312 4.6875Z" stroke="#FA4661" stroke-width="1.75" stroke-linecap="round" stroke-linejoin="round"/>
<path d="M14.0625 14.0625V17.1875" stroke="#FA4661" stroke-width="1.75" stroke-linecap="round" stroke-linejoin="round"/>
<path d="M14.0625 20.3125H17.1875V14.0625" stroke="#FA4661" stroke-width="1.75" stroke-linecap="round" stroke-linejoin="round"/>
<path d="M17.1875 15.625H20.3125" stroke="#FA4661" stroke-width="1.75" stroke-linecap="round" stroke-linejoin="round"/>
<path d="M20.3125 18.75V20.3125" stroke="#FA4661" stroke-width="1.75" stroke-linecap="round" stroke-linejoin="round"/>
</svg>
