<svg width="25" height="25" viewBox="0 0 25 25" fill="none" xmlns="http://www.w3.org/2000/svg">
<path d="M12.5 17.1875C15.0888 17.1875 17.1875 15.0888 17.1875 12.5C17.1875 9.91117 15.0888 7.8125 12.5 7.8125C9.91117 7.8125 7.8125 9.91117 7.8125 12.5C7.8125 15.0888 9.91117 17.1875 12.5 17.1875Z" stroke="#FA4661" stroke-width="1.75" stroke-linecap="round" stroke-linejoin="round"/>
<path d="M19.2784 7.88086C19.5135 8.21745 19.7194 8.57357 19.8937 8.94531L22.423 10.3516C22.7388 11.7661 22.7421 13.2325 22.4327 14.6484L19.8937 16.0547C19.7194 16.4264 19.5135 16.7825 19.2784 17.1191L19.3273 20.0195C18.2553 20.9963 16.9866 21.7322 15.6066 22.1777L13.1163 20.6836C12.7067 20.7129 12.2955 20.7129 11.8858 20.6836L9.40538 22.168C8.02091 21.7306 6.74805 20.9975 5.67491 20.0195L5.72374 17.1289C5.4906 16.7876 5.28488 16.4285 5.1085 16.0547L2.57921 14.6484C2.26338 13.2339 2.26005 11.7675 2.56944 10.3516L5.1085 8.94531C5.2828 8.57357 5.48863 8.21745 5.72374 7.88086L5.67491 4.98047C6.74683 4.00368 8.01552 3.26777 9.39561 2.82227L11.8858 4.31641C12.2955 4.28711 12.7067 4.28711 13.1163 4.31641L15.5968 2.83203C16.9812 3.26943 18.2541 4.00249 19.3273 4.98047L19.2784 7.88086Z" stroke="#FA4661" stroke-width="1.75" stroke-linecap="round" stroke-linejoin="round"/>
</svg>
