<svg width="23" height="22" viewBox="0 0 23 22" fill="none" xmlns="http://www.w3.org/2000/svg">
<path d="M11.9304 17.623L16.8523 20.748C17.4871 21.1484 18.2683 20.5527 18.0828 19.8203L16.657 14.2148C16.6185 14.0595 16.6246 13.8964 16.6747 13.7443C16.7248 13.5923 16.8168 13.4575 16.9402 13.3555L21.3543 9.67383C21.9304 9.19531 21.6375 8.22852 20.8855 8.17969L15.1238 7.80859C14.9666 7.79945 14.8155 7.7447 14.6889 7.65105C14.5623 7.5574 14.4657 7.4289 14.4109 7.28125L12.2625 1.8711C12.2056 1.71475 12.102 1.57969 11.9657 1.48425C11.8295 1.38882 11.6671 1.33762 11.5008 1.33762C11.3344 1.33762 11.1721 1.38882 11.0358 1.48425C10.8995 1.57969 10.7959 1.71475 10.739 1.8711L8.5906 7.28125C8.53585 7.4289 8.43927 7.5574 8.31266 7.65105C8.18606 7.7447 8.03492 7.79945 7.87771 7.80859L2.11599 8.17969C1.36404 8.22852 1.07107 9.19531 1.64724 9.67383L6.06131 13.3555C6.18468 13.4575 6.27672 13.5923 6.32683 13.7443C6.37693 13.8964 6.38306 14.0595 6.34451 14.2148L5.02615 19.4102C4.80154 20.2891 5.73904 21.002 6.49099 20.5234L11.0711 17.623C11.1995 17.5414 11.3486 17.498 11.5008 17.498C11.653 17.498 11.802 17.5414 11.9304 17.623V17.623Z" stroke="#FA4661" stroke-width="1.75" stroke-linecap="round" stroke-linejoin="round"/>
</svg>
