<svg width="33" height="32" viewBox="0 0 33 32" fill="none" xmlns="http://www.w3.org/2000/svg">
<path d="M15.5874 3.23751L5.49988 5.25001L3.48738 15.3375C3.45585 15.4986 3.46444 15.6649 3.5124 15.8219C3.56036 15.9788 3.64621 16.1216 3.76239 16.2375L16.8124 29.2875C16.9044 29.3816 17.0142 29.4564 17.1355 29.5075C17.2568 29.5585 17.387 29.5848 17.5186 29.5848C17.6502 29.5848 17.7805 29.5585 17.9018 29.5075C18.0231 29.4564 18.1329 29.3816 18.2249 29.2875L29.5374 17.975C29.6315 17.883 29.7063 17.7732 29.7573 17.6519C29.8084 17.5306 29.8347 17.4003 29.8347 17.2688C29.8347 17.1372 29.8084 17.0069 29.7573 16.8856C29.7063 16.7643 29.6315 16.6545 29.5374 16.5625L16.4874 3.51251C16.3715 3.39633 16.2287 3.31048 16.0718 3.26252C15.9148 3.21456 15.7484 3.20597 15.5874 3.23751V3.23751Z" stroke="#999999" stroke-width="2" stroke-linecap="round" stroke-linejoin="round"/>
<path d="M10.75 12C11.5784 12 12.25 11.3284 12.25 10.5C12.25 9.67157 11.5784 9 10.75 9C9.92157 9 9.25 9.67157 9.25 10.5C9.25 11.3284 9.92157 12 10.75 12Z" fill="#999999"/>
</svg>
