<svg width="26" height="25" viewBox="0 0 26 25" fill="none" xmlns="http://www.w3.org/2000/svg">
<path d="M19.5312 13.2812H24.2188" stroke="#FA4661" stroke-width="1.75" stroke-linecap="round" stroke-linejoin="round"/>
<path d="M21.875 10.9375V15.625" stroke="#FA4661" stroke-width="1.75" stroke-linecap="round" stroke-linejoin="round"/>
<path d="M10.5469 15.625C13.7829 15.625 16.4062 13.0017 16.4062 9.76562C16.4062 6.52958 13.7829 3.90625 10.5469 3.90625C7.31083 3.90625 4.6875 6.52958 4.6875 9.76562C4.6875 13.0017 7.31083 15.625 10.5469 15.625Z" stroke="#FA4661" stroke-width="1.75" stroke-miterlimit="10"/>
<path d="M2.16797 19.5313C3.19459 18.3077 4.47673 17.3238 5.92428 16.6488C7.37183 15.9737 8.94966 15.6239 10.5469 15.6239C12.1441 15.6239 13.7219 15.9737 15.1695 16.6488C16.617 17.3238 17.8992 18.3077 18.9258 19.5313" stroke="#FA4661" stroke-width="1.75" stroke-linecap="round" stroke-linejoin="round"/>
</svg>
