<svg width="25" height="25" viewBox="0 0 25 25" fill="none" xmlns="http://www.w3.org/2000/svg">
<path d="M12.5 15.625C14.6574 15.625 16.4062 13.8761 16.4062 11.7188C16.4062 9.56139 14.6574 7.8125 12.5 7.8125C10.3426 7.8125 8.59375 9.56139 8.59375 11.7188C8.59375 13.8761 10.3426 15.625 12.5 15.625Z" stroke="#FA4661" stroke-width="1.75" stroke-linecap="round" stroke-linejoin="round"/>
<path d="M6.23047 19.4726C6.81827 18.3148 7.71519 17.3424 8.82182 16.6632C9.92844 15.9839 11.2015 15.6244 12.5 15.6244C13.7985 15.6244 15.0716 15.9839 16.1782 16.6632C17.2848 17.3424 18.1817 18.3148 18.7695 19.4726" stroke="#FA4661" stroke-width="1.75" stroke-linecap="round" stroke-linejoin="round"/>
<g filter="url(#filter0_d_184_1151)">
<path d="M5.89062 5.88995L19.1113 19.1101" stroke="#FA4661" stroke-width="1.75"/>
</g>
<path d="M12.5 21.875C17.6777 21.875 21.875 17.6777 21.875 12.5C21.875 7.32233 17.6777 3.125 12.5 3.125C7.32233 3.125 3.125 7.32233 3.125 12.5C3.125 17.6777 7.32233 21.875 12.5 21.875Z" stroke="#FA4661" stroke-width="1.75" stroke-linecap="round" stroke-linejoin="round"/>
<defs>
<filter id="filter0_d_184_1151" x="5.27148" y="3.27122" width="14.459" height="16.4576" filterUnits="userSpaceOnUse" color-interpolation-filters="sRGB">
<feFlood flood-opacity="0" result="BackgroundImageFix"/>
<feColorMatrix in="SourceAlpha" type="matrix" values="0 0 0 0 0 0 0 0 0 0 0 0 0 0 0 0 0 0 127 0" result="hardAlpha"/>
<feOffset dy="-2"/>
<feComposite in2="hardAlpha" operator="out"/>
<feColorMatrix type="matrix" values="0 0 0 0 1 0 0 0 0 1 0 0 0 0 1 0 0 0 1 0"/>
<feBlend mode="normal" in2="BackgroundImageFix" result="effect1_dropShadow_184_1151"/>
<feBlend mode="normal" in="SourceGraphic" in2="effect1_dropShadow_184_1151" result="shape"/>
</filter>
</defs>
</svg>
