<svg width="24" height="24" viewBox="0 0 24 24" fill="none" xmlns="http://www.w3.org/2000/svg">
<path d="M14.8125 21.3747V15.7497C14.8125 15.5011 14.7137 15.2626 14.5379 15.0868C14.3621 14.911 14.1236 14.8122 13.875 14.8122H10.125C9.87636 14.8122 9.6379 14.911 9.46209 15.0868C9.28627 15.2626 9.1875 15.5011 9.1875 15.7497V21.3747C9.1875 21.6233 9.08873 21.8618 8.91291 22.0376C8.7371 22.2134 8.49864 22.3122 8.25 22.3122H2.625C2.37636 22.3122 2.1379 22.2134 1.96209 22.0376C1.78627 21.8618 1.6875 21.6233 1.6875 21.3747V10.5349C1.6896 10.4051 1.71764 10.2771 1.76996 10.1584C1.82229 10.0396 1.89785 9.93255 1.99219 9.84345L11.3672 1.32392C11.54 1.16581 11.7658 1.07812 12 1.07812C12.2342 1.07812 12.46 1.16581 12.6328 1.32392L22.0078 9.84345C22.1021 9.93255 22.1777 10.0396 22.23 10.1584C22.2824 10.2771 22.3104 10.4051 22.3125 10.5349V21.3747C22.3125 21.6233 22.2137 21.8618 22.0379 22.0376C21.8621 22.2134 21.6236 22.3122 21.375 22.3122H15.75C15.5014 22.3122 15.2629 22.2134 15.0871 22.0376C14.9113 21.8618 14.8125 21.6233 14.8125 21.3747Z" fill="#2A3135" stroke="#2A3135" stroke-width="1.75" stroke-linecap="round" stroke-linejoin="round"/>
</svg>
