<svg width="24" height="25" viewBox="0 0 24 25" fill="none" xmlns="http://www.w3.org/2000/svg">
<path d="M14.8125 22.3749V16.7499C14.8125 16.5013 14.7137 16.2628 14.5379 16.087C14.3621 15.9112 14.1236 15.8124 13.875 15.8124H10.125C9.87636 15.8124 9.6379 15.9112 9.46209 16.087C9.28627 16.2628 9.1875 16.5013 9.1875 16.7499V22.3749C9.1875 22.6236 9.08873 22.862 8.91291 23.0379C8.7371 23.2137 8.49864 23.3124 8.25 23.3124H2.625C2.37636 23.3124 2.1379 23.2137 1.96209 23.0379C1.78627 22.862 1.6875 22.6236 1.6875 22.3749V11.5351C1.6896 11.4054 1.71764 11.2773 1.76996 11.1586C1.82229 11.0399 1.89785 10.9328 1.99219 10.8437L11.3672 2.32417C11.54 2.16606 11.7658 2.07837 12 2.07837C12.2342 2.07837 12.46 2.16606 12.6328 2.32417L22.0078 10.8437C22.1022 10.9328 22.1777 11.0399 22.23 11.1586C22.2824 11.2773 22.3104 11.4054 22.3125 11.5351V22.3749C22.3125 22.6236 22.2137 22.862 22.0379 23.0379C21.8621 23.2137 21.6236 23.3124 21.375 23.3124H15.75C15.5014 23.3124 15.2629 23.2137 15.0871 23.0379C14.9113 22.862 14.8125 22.6236 14.8125 22.3749Z" stroke="#2A3135" stroke-width="2.25" stroke-linecap="round" stroke-linejoin="round"/>
</svg>
