<svg width="21" height="21" viewBox="0 0 21 21" fill="none" xmlns="http://www.w3.org/2000/svg">
<path d="M7.5625 13.7714L14.1053 7.21894" stroke="#2A3135" stroke-width="1.75" stroke-linecap="round" stroke-linejoin="round"/>
<path d="M12.4745 15.4119L9.74351 18.1429C9.31327 18.5732 8.8025 18.9145 8.24036 19.1473C7.67823 19.3802 7.07573 19.5 6.46728 19.5C5.23845 19.5 4.05996 19.0118 3.19104 18.1429C2.32213 17.274 1.83398 16.0955 1.83398 14.8667C1.83398 13.6379 2.32213 12.4594 3.19104 11.5905L5.92204 8.85947" stroke="#2A3135" stroke-width="1.75" stroke-linecap="round" stroke-linejoin="round"/>
<path d="M15.7458 12.1405L18.4768 9.40953C19.3457 8.54062 19.8339 7.36212 19.8339 6.13329C19.8339 4.90447 19.3457 3.72597 18.4768 2.85706C17.6079 1.98815 16.4294 1.5 15.2006 1.5C13.9718 1.5 12.7933 1.98815 11.9244 2.85706L9.19336 5.58806" stroke="#2A3135" stroke-width="1.75" stroke-linecap="round" stroke-linejoin="round"/>
</svg>
