<svg width="21" height="21" viewBox="0 0 21 21" fill="none" xmlns="http://www.w3.org/2000/svg">
<path d="M7.80195 1.5H2.40195C1.9049 1.5 1.50195 1.90294 1.50195 2.4V7.8C1.50195 8.29706 1.9049 8.7 2.40195 8.7H7.80195C8.29901 8.7 8.70195 8.29706 8.70195 7.8V2.4C8.70195 1.90294 8.29901 1.5 7.80195 1.5Z" stroke="#2A3135" stroke-width="1.75" stroke-linecap="round" stroke-linejoin="round"/>
<path d="M7.80195 12.3H2.40195C1.9049 12.3 1.50195 12.7029 1.50195 13.2V18.6C1.50195 19.0971 1.9049 19.5 2.40195 19.5H7.80195C8.29901 19.5 8.70195 19.0971 8.70195 18.6V13.2C8.70195 12.7029 8.29901 12.3 7.80195 12.3Z" stroke="#2A3135" stroke-width="1.75" stroke-linecap="round" stroke-linejoin="round"/>
<path d="M18.6027 1.5H13.2027C12.7057 1.5 12.3027 1.90294 12.3027 2.4V7.8C12.3027 8.29706 12.7057 8.7 13.2027 8.7H18.6027C19.0998 8.7 19.5027 8.29706 19.5027 7.8V2.4C19.5027 1.90294 19.0998 1.5 18.6027 1.5Z" stroke="#2A3135" stroke-width="1.75" stroke-linecap="round" stroke-linejoin="round"/>
<path d="M12.3027 12.3V15.9" stroke="#2A3135" stroke-width="1.75" stroke-linecap="round" stroke-linejoin="round"/>
<path d="M12.3027 19.5H15.9027V12.3" stroke="#2A3135" stroke-width="1.75" stroke-linecap="round" stroke-linejoin="round"/>
<path d="M15.9023 14.1H19.5023" stroke="#2A3135" stroke-width="1.75" stroke-linecap="round" stroke-linejoin="round"/>
<path d="M19.502 17.7V19.5" stroke="#2A3135" stroke-width="1.75" stroke-linecap="round" stroke-linejoin="round"/>
</svg>
