<svg width="21" height="21" viewBox="0 0 21 21" fill="none" xmlns="http://www.w3.org/2000/svg">
<path d="M5.59375 13.7727H18.6847C18.9017 13.7727 19.1098 13.6865 19.2632 13.5331C19.4166 13.3796 19.5028 13.1715 19.5028 12.9545V2.31818C19.5028 2.10119 19.4166 1.89308 19.2632 1.73964C19.1098 1.5862 18.9017 1.5 18.6847 1.5H7.23011C7.01312 1.5 6.80501 1.5862 6.65157 1.73964C6.49813 1.89308 6.41193 2.10119 6.41193 2.31818V3.13636" stroke="#2A3135" stroke-width="1.75" stroke-linecap="round" stroke-linejoin="round"/>
<path d="M8.0483 11.3182L5.59375 13.7727L8.0483 16.2273" stroke="#2A3135" stroke-width="1.75" stroke-linecap="round" stroke-linejoin="round"/>
<path d="M15.411 7.22727H2.32013C2.10314 7.22727 1.89503 7.31347 1.74159 7.46691C1.58815 7.62035 1.50195 7.82846 1.50195 8.04545V18.6818C1.50195 18.8988 1.58815 19.1069 1.74159 19.2604C1.89503 19.4138 2.10314 19.5 2.32013 19.5H13.7747C13.9917 19.5 14.1998 19.4138 14.3532 19.2604C14.5067 19.1069 14.5929 18.8988 14.5929 18.6818V17.8636" stroke="#2A3135" stroke-width="1.75" stroke-linecap="round" stroke-linejoin="round"/>
<path d="M12.957 9.68182L15.4116 7.22727L12.957 4.77273" stroke="#2A3135" stroke-width="1.75" stroke-linecap="round" stroke-linejoin="round"/>
</svg>
