<svg width="21" height="20" viewBox="0 0 21 20" fill="none" xmlns="http://www.w3.org/2000/svg">
<path d="M4.0945 16.3606C3.29835 15.5644 3.82623 13.8942 3.4195 12.9163C3.01277 11.9385 1.45508 11.0817 1.45508 10C1.45508 8.91827 2.99546 8.09615 3.4195 7.08365C3.84354 6.07115 3.29835 4.43558 4.0945 3.63942C4.89066 2.84327 6.56085 3.37115 7.53873 2.96442C8.51662 2.55769 9.37335 1 10.4551 1C11.5368 1 12.3589 2.54038 13.3714 2.96442C14.3839 3.38846 16.0195 2.84327 16.8157 3.63942C17.6118 4.43558 17.0839 6.10577 17.4907 7.08365C17.8974 8.06154 19.4551 8.91827 19.4551 10C19.4551 11.0817 17.9147 11.9038 17.4907 12.9163C17.0666 13.9288 17.6118 15.5644 16.8157 16.3606C16.0195 17.1567 14.3493 16.6288 13.3714 17.0356C12.3935 17.4423 11.5368 19 10.4551 19C9.37335 19 8.55123 17.4596 7.53873 17.0356C6.52623 16.6115 4.89066 17.1567 4.0945 16.3606Z" stroke="#FA4661" stroke-width="1.75" stroke-linecap="round" stroke-linejoin="round"/>
<path d="M10.4551 5.84615V10.6923" stroke="#FA4661" stroke-width="1.75" stroke-linecap="round" stroke-linejoin="round"/>
<path d="M10.4545 14.8462C11.028 14.8462 11.4929 14.3812 11.4929 13.8077C11.4929 13.2342 11.028 12.7692 10.4545 12.7692C9.88095 12.7692 9.41602 13.2342 9.41602 13.8077C9.41602 14.3812 9.88095 14.8462 10.4545 14.8462Z" fill="#FA4661"/>
</svg>
