<svg width="17" height="21" viewBox="0 0 17 21" fill="none" xmlns="http://www.w3.org/2000/svg">
<path d="M3.654 13.2692C5.1834 13.2692 6.42323 12.0294 6.42323 10.5C6.42323 8.9706 5.1834 7.73077 3.654 7.73077C2.12459 7.73077 0.884766 8.9706 0.884766 10.5C0.884766 12.0294 2.12459 13.2692 3.654 13.2692Z" stroke="#2A3135" stroke-width="1.75" stroke-linecap="round" stroke-linejoin="round"/>
<path d="M13.3454 19.5C14.8748 19.5 16.1146 18.2602 16.1146 16.7308C16.1146 15.2014 14.8748 13.9615 13.3454 13.9615C11.816 13.9615 10.5762 15.2014 10.5762 16.7308C10.5762 18.2602 11.816 19.5 13.3454 19.5Z" stroke="#2A3135" stroke-width="1.75" stroke-linecap="round" stroke-linejoin="round"/>
<path d="M13.3454 7.03846C14.8748 7.03846 16.1146 5.79864 16.1146 4.26923C16.1146 2.73983 14.8748 1.5 13.3454 1.5C11.816 1.5 10.5762 2.73983 10.5762 4.26923C10.5762 5.79864 11.816 7.03846 13.3454 7.03846Z" stroke="#2A3135" stroke-width="1.75" stroke-linecap="round" stroke-linejoin="round"/>
<path d="M11.019 5.76636L5.98242 9.0029" stroke="#2A3135" stroke-width="1.75" stroke-linecap="round" stroke-linejoin="round"/>
<path d="M5.98242 11.9971L11.019 15.2337" stroke="#2A3135" stroke-width="1.75" stroke-linecap="round" stroke-linejoin="round"/>
</svg>
