<svg width="141" height="186" viewBox="0 0 141 186" fill="none" xmlns="http://www.w3.org/2000/svg">
<rect x="0.5" y="0.5" width="140" height="140" rx="40" fill="#32618B"/>
<g filter="url(#filter0_d_24_13)">
<mask id="mask0_24_13" style="mask-type:alpha" maskUnits="userSpaceOnUse" x="20" y="20" width="101" height="101">
<path d="M20.5 70.5C20.5 51.8077 20.5 42.4615 24.5192 35.5C27.1523 30.9394 30.9394 27.1523 35.5 24.5192C42.4615 20.5 51.8077 20.5 70.5 20.5C89.1923 20.5 98.5385 20.5 105.5 24.5192C110.061 27.1523 113.848 30.9394 116.481 35.5C120.5 42.4615 120.5 51.8077 120.5 70.5C120.5 89.1923 120.5 98.5385 116.481 105.5C113.848 110.061 110.061 113.848 105.5 116.481C98.5385 120.5 89.1923 120.5 70.5 120.5C51.8077 120.5 42.4615 120.5 35.5 116.481C30.9394 113.848 27.1523 110.061 24.5192 105.5C20.5 98.5385 20.5 89.1923 20.5 70.5Z" fill="white"/>
</mask>
<g mask="url(#mask0_24_13)">
<path d="M20.5 70.5C20.5 51.8077 20.5 42.4615 24.5192 35.5C27.1523 30.9394 30.9394 27.1523 35.5 24.5192C42.4615 20.5 51.8077 20.5 70.5 20.5C89.1923 20.5 98.5385 20.5 105.5 24.5192C110.061 27.1523 113.848 30.9394 116.481 35.5C120.5 42.4615 120.5 51.8077 120.5 70.5C120.5 89.1923 120.5 98.5385 116.481 105.5C113.848 110.061 110.061 113.848 105.5 116.481C98.5385 120.5 89.1923 120.5 70.5 120.5C51.8077 120.5 42.4615 120.5 35.5 116.481C30.9394 113.848 27.1523 110.061 24.5192 105.5C20.5 98.5385 20.5 89.1923 20.5 70.5Z" fill="#B5B5B5"/>
<path d="M20.5 69.2309C20.5 51.013 20.5 41.9041 24.5192 35.1193C27.1523 30.6744 30.9394 26.9834 35.5 24.4172C42.4615 20.5 51.8077 20.5 70.5 20.5C89.1923 20.5 98.5385 20.5 105.5 24.4172C110.061 26.9834 113.848 30.6744 116.481 35.1193C120.5 41.9041 120.5 51.013 120.5 69.2309C120.5 87.4487 120.5 96.5577 116.481 103.342C113.848 107.787 110.061 111.478 105.5 114.045C98.5385 117.962 89.1923 117.962 70.5 117.962C51.8077 117.962 42.4615 117.962 35.5 114.045C30.9394 111.478 27.1523 107.787 24.5192 103.342C20.5 96.5577 20.5 87.4487 20.5 69.2309Z" fill="white"/>
<path d="M20.5 20.5H32.613V57.8121H20.5V20.5Z" fill="#FA4661"/>
<path d="M32.613 20.5H44.726V57.812L32.613 57.8121V20.5Z" fill="#FDD829"/>
<path d="M44.726 20.5H56.8389V57.812H44.726V20.5Z" fill="#6FCD81"/>
<path d="M56.8389 20.5H68.9519V53.221H56.8389L56.8389 20.5Z" fill="#4AA3FD"/>
<path d="M103.071 43.0558C103.071 45.887 100.775 48.1821 97.9442 48.1821C95.113 48.1821 92.8179 45.887 92.8179 43.0558C92.8179 40.2246 95.113 37.9295 97.9442 37.9295C100.775 37.9295 103.071 40.2246 103.071 43.0558Z" fill="#2D425F"/>
<path d="M93.0547 70.5001C93.0547 82.9567 82.9566 93.0547 70.5 93.0547C58.0434 93.0547 47.9453 82.9567 47.9453 70.5001C47.9453 58.0435 58.0434 47.9454 70.5 47.9454C82.9566 47.9454 93.0547 58.0435 93.0547 70.5001ZM56.1492 70.5001C56.1492 78.4258 62.5743 84.8509 70.5 84.8509C78.4257 84.8509 84.8508 78.4258 84.8508 70.5001C84.8508 62.5743 78.4257 56.1492 70.5 56.1492C62.5743 56.1492 56.1492 62.5743 56.1492 70.5001Z" fill="#2D425F"/>
</g>
</g>
<path d="M19.4648 160.984C19.4648 162.115 18.9635 162.68 17.9609 162.68H17.0176C16.7259 162.68 16.498 162.575 16.334 162.365C16.179 162.146 16.0879 161.85 16.0605 161.477C16.0423 161.094 15.9284 160.747 15.7188 160.438C15.5091 160.118 15.2402 159.863 14.9121 159.672C14.3014 159.316 13.4902 159.139 12.4785 159.139C11.4668 159.139 10.5872 159.353 9.83984 159.781C9.09245 160.201 8.49089 160.766 8.03516 161.477C7.16016 162.807 6.72266 164.585 6.72266 166.809C6.72266 170.81 8.02604 173.326 10.6328 174.355C11.4349 174.665 12.2188 174.82 12.9844 174.82C14.3698 174.82 15.5911 174.57 16.6484 174.068L17.4141 173.713C17.6602 173.604 17.8789 173.549 18.0703 173.549C18.2617 173.549 18.4167 173.594 18.5352 173.686C18.6536 173.777 18.7995 173.995 18.9727 174.342C19.1549 174.679 19.2461 174.975 19.2461 175.23C19.2461 175.477 19.1595 175.723 18.9863 175.969C18.8132 176.206 18.599 176.415 18.3438 176.598C17.8971 176.889 17.3594 177.131 16.7305 177.322C15.582 177.669 14.2376 177.842 12.6973 177.842C11.166 177.842 9.79427 177.564 8.58203 177.008C7.37891 176.452 6.36719 175.682 5.54688 174.697C3.86068 172.692 3.01758 170.062 3.01758 166.809C3.01758 163.6 3.86979 161.039 5.57422 159.125C7.3151 157.156 9.71224 156.172 12.7656 156.172C14.4427 156.172 15.9284 156.546 17.2227 157.293C18.7174 158.15 19.4648 159.38 19.4648 160.984Z" fill="#32608A"/>
<path d="M23.0469 154.121C23.0469 153.875 23.1152 153.67 23.252 153.506C23.3978 153.342 23.571 153.26 23.7715 153.26H25.6445C25.8542 153.26 26.0273 153.342 26.1641 153.506C26.3008 153.67 26.3691 153.875 26.3691 154.121V164.471C27.153 163.14 28.306 162.288 29.8281 161.914C30.3112 161.796 30.9219 161.736 31.6602 161.736C32.4076 161.736 33.1048 161.9 33.752 162.229C34.3991 162.548 34.9141 162.99 35.2969 163.555C35.9805 164.585 36.3223 166.102 36.3223 168.107V176.598C36.3223 176.871 36.2402 177.09 36.0762 177.254C35.9121 177.418 35.6706 177.5 35.3516 177.5H34.0117C33.6654 177.5 33.4102 177.413 33.2461 177.24C33.082 177.067 33 176.853 33 176.598V168.094C33 165.76 32.1432 164.594 30.4297 164.594C29.4727 164.594 28.5703 165.013 27.7227 165.852C26.8203 166.763 26.3691 167.811 26.3691 168.996V176.598C26.3691 176.853 26.2917 177.067 26.1367 177.24C25.9818 177.413 25.7311 177.5 25.3848 177.5H23.8945C23.6302 177.5 23.4206 177.413 23.2656 177.24C23.1198 177.067 23.0469 176.853 23.0469 176.598V154.121Z" fill="#32608A"/>
<path d="M53.6855 176.775C53.6855 177.258 53.4486 177.5 52.9746 177.5H51.6484C51.293 177.5 51.0788 177.432 51.0059 177.295C50.9329 177.149 50.8919 177.021 50.8828 176.912C50.8737 176.794 50.8555 176.652 50.8281 176.488C50.7734 176.042 50.696 175.559 50.5957 175.039C49.8848 176.342 48.7682 177.204 47.2461 177.623C46.7083 177.769 46.1159 177.842 45.4688 177.842C44.8216 177.842 44.1745 177.732 43.5273 177.514C42.8802 177.304 42.306 176.99 41.8047 176.57C40.6745 175.622 40.1094 174.378 40.1094 172.838C40.1094 171.152 40.7292 169.862 41.9688 168.969C42.9896 168.249 44.3021 167.889 45.9062 167.889C47.5104 167.889 48.8685 168.358 49.9805 169.297C50.0078 168.987 50.0215 168.6 50.0215 168.135C50.0215 167.67 49.9303 167.205 49.748 166.74C49.5658 166.275 49.306 165.888 48.9688 165.578C48.276 164.967 47.3099 164.662 46.0703 164.662C44.9583 164.662 43.8281 164.967 42.6797 165.578C42.4609 165.697 42.2695 165.756 42.1055 165.756C41.8594 165.756 41.6224 165.514 41.3945 165.031C41.1484 164.539 41.0254 164.184 41.0254 163.965C41.0254 163.564 41.3262 163.176 41.9277 162.803C43.0762 162.092 44.612 161.736 46.5352 161.736C48.2852 161.736 49.7344 162.215 50.8828 163.172C52.2409 164.32 52.9199 165.943 52.9199 168.039C52.9199 168.969 52.7695 170.14 52.4688 171.553C53.2435 173.758 53.6491 175.499 53.6855 176.775ZM44.5254 170.979C44.1517 171.252 43.8828 171.525 43.7188 171.799C43.5638 172.072 43.4863 172.396 43.4863 172.77C43.4863 173.134 43.5501 173.462 43.6777 173.754C43.8145 174.036 44.0013 174.273 44.2383 174.465C44.7396 174.857 45.3001 175.053 45.9199 175.053C46.5488 175.053 47.0638 174.98 47.4648 174.834C47.8659 174.688 48.2122 174.501 48.5039 174.273C49.1328 173.781 49.4473 173.262 49.4473 172.715C49.3926 172.031 49.0143 171.493 48.3125 171.102C47.6836 170.737 46.9408 170.555 46.084 170.555C45.4186 170.555 44.8991 170.696 44.5254 170.979Z" fill="#32608A"/>
<path d="M65.9902 164.156C65.9902 164.667 65.7031 164.922 65.1289 164.922H61.2734V173.508C61.2734 174.438 61.7337 174.902 62.6543 174.902C63.2376 174.902 63.9987 174.611 64.9375 174.027C65.1198 173.909 65.3158 173.85 65.5254 173.85C65.7441 173.85 65.9173 174 66.0449 174.301L66.3594 175.012C66.4779 175.285 66.5371 175.518 66.5371 175.709C66.5371 175.9 66.3913 176.124 66.0996 176.379C65.8171 176.625 65.4525 176.848 65.0059 177.049C63.9941 177.505 63.0781 177.732 62.2578 177.732C61.4375 177.732 60.7858 177.65 60.3027 177.486C59.8288 177.313 59.4232 177.058 59.0859 176.721C58.3568 176.01 57.9922 174.984 57.9922 173.645V164.922H56.8438C56.2695 164.922 55.9824 164.662 55.9824 164.143V163.363C55.9824 163.154 56.0371 162.99 56.1465 162.871C56.2559 162.753 56.4701 162.661 56.7891 162.598L58.1562 162.201L58.6758 158.988C58.776 158.387 59.0221 158.086 59.4141 158.086H60.5488C60.7585 158.086 60.9316 158.173 61.0684 158.346C61.2051 158.51 61.2734 158.724 61.2734 158.988V162.078H65.1289C65.7031 162.078 65.9902 162.329 65.9902 162.83V164.156Z" fill="#32608A"/>
<path d="M73.0449 176.037C73.9017 175.618 74.8086 175.408 75.7656 175.408C76.7318 175.408 77.5885 175.499 78.3359 175.682C79.0924 175.855 79.7715 176.133 80.373 176.516C81.722 177.372 82.3965 178.571 82.3965 180.111C82.3965 181.715 81.6309 183.005 80.0996 183.98C78.7415 184.837 77.11 185.266 75.2051 185.266C73.2637 185.266 71.6458 184.846 70.3516 184.008C68.957 183.096 68.2598 181.857 68.2598 180.289C68.2598 178.384 69.2669 176.543 71.2812 174.766C72.0651 174.082 72.931 173.467 73.8789 172.92C72.3932 172.783 71.1263 172.259 70.0781 171.348C68.9023 170.318 68.3145 169.037 68.3145 167.506C68.3145 165.747 68.9753 164.32 70.2969 163.227C71.5091 162.233 72.9538 161.736 74.6309 161.736C76.4355 161.736 77.8529 162.224 78.8828 163.199C79.2018 163.5 79.457 163.842 79.6484 164.225C79.6484 163.386 79.5391 162.52 79.3203 161.627C79.1107 160.725 79.0059 160.187 79.0059 160.014C79.0059 159.84 79.0378 159.704 79.1016 159.604C79.1745 159.494 79.2565 159.412 79.3477 159.357C79.4844 159.275 79.6393 159.234 79.8125 159.234H80.9883C81.7448 159.234 82.123 160.287 82.123 162.393C82.123 164.079 81.7858 165.633 81.1113 167.055C81.1296 167.255 81.1387 167.52 81.1387 167.848C81.1387 168.176 81.0658 168.559 80.9199 168.996C80.7741 169.434 80.5781 169.844 80.332 170.227C80.0951 170.6 79.8171 170.947 79.498 171.266C79.1881 171.585 78.8555 171.881 78.5 172.154C78.1536 172.428 77.8027 172.678 77.4473 172.906C75.4512 174.173 74.2572 174.966 73.8652 175.285C73.4733 175.595 73.1999 175.846 73.0449 176.037ZM72.416 169.693C72.7259 169.958 73.0859 170.163 73.4961 170.309C73.9154 170.445 74.3574 170.514 74.8223 170.514C75.2962 170.514 75.7292 170.445 76.1211 170.309C76.513 170.163 76.8594 169.953 77.1602 169.68C77.7982 169.105 78.1172 168.367 78.1172 167.465C78.1172 166.544 77.7617 165.82 77.0508 165.291C76.4219 164.826 75.6471 164.594 74.7266 164.594C73.2682 164.594 72.2611 165.136 71.7051 166.221C71.5228 166.576 71.4316 166.991 71.4316 167.465C71.4316 167.93 71.5182 168.349 71.6914 168.723C71.8646 169.096 72.1061 169.42 72.416 169.693ZM71.7598 178.566C71.4225 178.949 71.2539 179.373 71.2539 179.838C71.2539 180.303 71.3678 180.699 71.5957 181.027C71.8236 181.355 72.1244 181.629 72.498 181.848C73.2181 182.258 74.1204 182.463 75.2051 182.463C76.9186 182.463 78.1126 182.039 78.7871 181.191C79.0059 180.909 79.1152 180.553 79.1152 180.125C79.1152 179.697 78.9785 179.332 78.7051 179.031C78.4408 178.73 78.1081 178.498 77.707 178.334C77.0417 178.061 76.1758 177.924 75.1094 177.924C73.4688 177.924 72.3522 178.138 71.7598 178.566Z" fill="#32608A"/>
<path d="M85.2676 163.062C85.2676 162.406 85.5547 162.078 86.1289 162.078H86.8672C87.3685 162.078 87.724 162.297 87.9336 162.734C88.2344 163.372 88.4531 164.252 88.5898 165.373C88.5898 165.391 88.5944 165.4 88.6035 165.4C88.6217 165.4 88.6536 165.245 88.6992 164.936C88.7448 164.626 88.877 164.247 89.0957 163.801C89.3145 163.345 89.5833 162.962 89.9023 162.652C90.5495 162.042 91.3424 161.736 92.2812 161.736C93.3294 161.736 94.0586 161.91 94.4688 162.256C94.6602 162.411 94.7376 162.625 94.7012 162.898L94.4824 164.621C94.4277 165.086 94.1908 165.318 93.7715 165.318C93.571 165.318 93.3249 165.277 93.0332 165.195C92.4681 165.049 92.0215 164.977 91.6934 164.977C91.3652 164.977 91.0189 165.122 90.6543 165.414C90.2897 165.697 89.9753 166.052 89.7109 166.48C89.1732 167.374 88.9043 168.326 88.9043 169.338V176.598C88.9043 176.853 88.8314 177.067 88.6855 177.24C88.5397 177.413 88.3301 177.5 88.0566 177.5H86.4707C86.179 177.5 85.9557 177.413 85.8008 177.24C85.6549 177.067 85.582 176.853 85.582 176.598V167.178C85.582 165.574 85.5273 164.516 85.418 164.006C85.3177 163.486 85.2676 163.172 85.2676 163.062Z" fill="#32608A"/>
<path d="M109.686 176.775C109.686 177.258 109.449 177.5 108.975 177.5H107.648C107.293 177.5 107.079 177.432 107.006 177.295C106.933 177.149 106.892 177.021 106.883 176.912C106.874 176.794 106.855 176.652 106.828 176.488C106.773 176.042 106.696 175.559 106.596 175.039C105.885 176.342 104.768 177.204 103.246 177.623C102.708 177.769 102.116 177.842 101.469 177.842C100.822 177.842 100.174 177.732 99.5273 177.514C98.8802 177.304 98.306 176.99 97.8047 176.57C96.6745 175.622 96.1094 174.378 96.1094 172.838C96.1094 171.152 96.7292 169.862 97.9688 168.969C98.9896 168.249 100.302 167.889 101.906 167.889C103.51 167.889 104.868 168.358 105.98 169.297C106.008 168.987 106.021 168.6 106.021 168.135C106.021 167.67 105.93 167.205 105.748 166.74C105.566 166.275 105.306 165.888 104.969 165.578C104.276 164.967 103.31 164.662 102.07 164.662C100.958 164.662 99.8281 164.967 98.6797 165.578C98.4609 165.697 98.2695 165.756 98.1055 165.756C97.8594 165.756 97.6224 165.514 97.3945 165.031C97.1484 164.539 97.0254 164.184 97.0254 163.965C97.0254 163.564 97.3262 163.176 97.9277 162.803C99.0762 162.092 100.612 161.736 102.535 161.736C104.285 161.736 105.734 162.215 106.883 163.172C108.241 164.32 108.92 165.943 108.92 168.039C108.92 168.969 108.77 170.14 108.469 171.553C109.243 173.758 109.649 175.499 109.686 176.775ZM100.525 170.979C100.152 171.252 99.8828 171.525 99.7188 171.799C99.5638 172.072 99.4863 172.396 99.4863 172.77C99.4863 173.134 99.5501 173.462 99.6777 173.754C99.8145 174.036 100.001 174.273 100.238 174.465C100.74 174.857 101.3 175.053 101.92 175.053C102.549 175.053 103.064 174.98 103.465 174.834C103.866 174.688 104.212 174.501 104.504 174.273C105.133 173.781 105.447 173.262 105.447 172.715C105.393 172.031 105.014 171.493 104.312 171.102C103.684 170.737 102.941 170.555 102.084 170.555C101.419 170.555 100.899 170.696 100.525 170.979Z" fill="#32608A"/>
<path d="M122.059 161.736C124.355 161.736 125.809 162.762 126.42 164.812C127.331 163.345 128.539 162.388 130.043 161.941C130.553 161.796 131.196 161.723 131.971 161.723C132.745 161.723 133.493 161.914 134.213 162.297C134.942 162.68 135.48 163.181 135.826 163.801C136.182 164.411 136.405 165.086 136.496 165.824C136.596 166.562 136.646 167.355 136.646 168.203V176.598C136.646 176.853 136.564 177.067 136.4 177.24C136.236 177.413 135.995 177.5 135.676 177.5H134.336C133.99 177.5 133.734 177.413 133.57 177.24C133.406 177.067 133.324 176.853 133.324 176.598V168.08C133.324 166.904 133.119 166.029 132.709 165.455C132.308 164.881 131.67 164.594 130.795 164.594C129.801 164.594 128.931 165.031 128.184 165.906C127.382 166.818 126.98 167.948 126.98 169.297V176.598C126.98 176.853 126.898 177.067 126.734 177.24C126.57 177.413 126.329 177.5 126.01 177.5H124.67C124.324 177.5 124.068 177.413 123.904 177.24C123.74 177.067 123.658 176.853 123.658 176.598V168.08C123.658 166.904 123.453 166.029 123.043 165.455C122.642 164.881 122.004 164.594 121.129 164.594C120.135 164.594 119.26 165.031 118.504 165.906C117.711 166.818 117.314 167.948 117.314 169.297V176.598C117.314 176.853 117.237 177.067 117.082 177.24C116.927 177.413 116.69 177.5 116.371 177.5H114.963C114.644 177.5 114.402 177.413 114.238 177.24C114.074 177.067 113.992 176.853 113.992 176.598V168.203C113.992 166.371 113.933 165.095 113.814 164.375C113.696 163.646 113.637 163.208 113.637 163.062C113.637 162.406 113.951 162.078 114.58 162.078H115.332C115.842 162.078 116.189 162.27 116.371 162.652C116.59 163.117 116.799 163.837 117 164.812C117.793 163.382 118.941 162.434 120.445 161.969C120.956 161.814 121.493 161.736 122.059 161.736Z" fill="#32608A"/>
<defs>
<filter id="filter0_d_24_13" x="4.5" y="4.5" width="132" height="132" filterUnits="userSpaceOnUse" color-interpolation-filters="sRGB">
<feFlood flood-opacity="0" result="BackgroundImageFix"/>
<feColorMatrix in="SourceAlpha" type="matrix" values="0 0 0 0 0 0 0 0 0 0 0 0 0 0 0 0 0 0 127 0" result="hardAlpha"/>
<feOffset/>
<feGaussianBlur stdDeviation="8"/>
<feColorMatrix type="matrix" values="0 0 0 0 0 0 0 0 0 0 0 0 0 0 0 0 0 0 0.1 0"/>
<feBlend mode="normal" in2="BackgroundImageFix" result="effect1_dropShadow_24_13"/>
<feBlend mode="normal" in="SourceGraphic" in2="effect1_dropShadow_24_13" result="shape"/>
</filter>
</defs>
</svg>
