<svg width="30" height="30" viewBox="0 0 30 30" fill="none" xmlns="http://www.w3.org/2000/svg">
<path d="M5.32014 20.7422C3.9243 18.3872 3.43606 15.6037 3.94706 12.9143C4.45807 10.2248 5.93318 7.81435 8.09547 6.13541C10.2578 4.45648 12.9585 3.62453 15.6907 3.79576C18.423 3.96699 20.9987 5.12961 22.9345 7.06537C24.8702 9.00113 26.0329 11.5769 26.2041 14.3091C26.3753 17.0413 25.5434 19.7421 23.8644 21.9044C22.1855 24.0667 19.7751 25.5418 17.0856 26.0528C14.3961 26.5638 11.6126 26.0756 9.25764 24.6797L5.36702 25.7813C5.20761 25.8279 5.03861 25.8308 4.87771 25.7896C4.71681 25.7485 4.56994 25.6648 4.45251 25.5473C4.33507 25.4299 4.25139 25.283 4.21023 25.1221C4.16907 24.9612 4.17196 24.7922 4.21858 24.6328L5.32014 20.7422Z" stroke="#2A3135" stroke-width="2.25" stroke-linecap="round" stroke-linejoin="round"/>
<path d="M9.375 16.875L13.125 13.125L16.875 16.875L20.625 13.125" stroke="#2A3135" stroke-width="2.25" stroke-linecap="round" stroke-linejoin="round"/>
</svg>
