<svg width="26" height="27" viewBox="0 0 26 27" fill="none" xmlns="http://www.w3.org/2000/svg">
<path d="M21.3586 4.1461L2.42733 9.47813C2.26617 9.52219 2.12252 9.61486 2.01593 9.74351C1.90935 9.87216 1.84501 10.0305 1.83169 10.1971C1.81837 10.3636 1.85671 10.5302 1.94148 10.6742C2.02626 10.8181 2.15335 10.9324 2.30545 11.0016L10.9992 15.1148C11.1695 15.1937 11.3063 15.3305 11.3851 15.5008L15.4984 24.1945C15.5675 24.3466 15.6819 24.4737 15.8258 24.5585C15.9698 24.6433 16.1364 24.6816 16.3029 24.6683C16.4694 24.655 16.6278 24.5906 16.7565 24.4841C16.8851 24.3775 16.9778 24.2338 17.0219 24.0727L22.3539 5.14141C22.3943 5.00326 22.3968 4.85679 22.3611 4.71734C22.3255 4.5779 22.2529 4.45062 22.1511 4.34884C22.0494 4.24706 21.9221 4.17454 21.7826 4.13887C21.6432 4.1032 21.4967 4.10569 21.3586 4.1461V4.1461Z" stroke="#2A3135" stroke-width="1.75" stroke-linecap="round" stroke-linejoin="round"/>
<path d="M11.2632 15.2367L15.8538 10.6461" stroke="#2A3135" stroke-width="1.75" stroke-linecap="round" stroke-linejoin="round"/>
</svg>
