<svg width="24" height="25" viewBox="0 0 24 25" fill="none" xmlns="http://www.w3.org/2000/svg">
<path d="M12 21.3866C16.9706 21.3866 21 17.3572 21 12.3866C21 7.41603 16.9706 3.3866 12 3.3866C7.02944 3.3866 3 7.41603 3 12.3866C3 17.3572 7.02944 21.3866 12 21.3866Z" stroke="#2A3532" stroke-width="2" stroke-linecap="round" stroke-linejoin="round"/>
<path d="M8.625 11.6366C9.24632 11.6366 9.75 11.1329 9.75 10.5116C9.75 9.89028 9.24632 9.3866 8.625 9.3866C8.00368 9.3866 7.5 9.89028 7.5 10.5116C7.5 11.1329 8.00368 11.6366 8.625 11.6366Z" fill="#2A3532"/>
<path d="M15.375 11.6366C15.9963 11.6366 16.5 11.1329 16.5 10.5116C16.5 9.89028 15.9963 9.3866 15.375 9.3866C14.7537 9.3866 14.25 9.89028 14.25 10.5116C14.25 11.1329 14.7537 11.6366 15.375 11.6366Z" fill="#2A3532"/>
<path d="M15.9016 14.6366C15.5051 15.3197 14.9362 15.8866 14.2517 16.2807C13.5673 16.6748 12.7914 16.8822 12.0016 16.8822C11.2118 16.8822 10.4358 16.6748 9.7514 16.2807C9.06696 15.8866 8.49804 15.3197 8.10156 14.6366" stroke="#2A3532" stroke-width="2" stroke-linecap="round" stroke-linejoin="round"/>
</svg>
